<svg width="51" height="50" viewBox="0 0 51 50" fill="none" xmlns="http://www.w3.org/2000/svg">
<path d="M1 25.5354C37 28.4848 46 42.7402 46 49.4993" stroke="black" stroke-width="2"/>
<path d="M1 25.5354C37 22.586 48 8.33058 48 1.57155" stroke="black" stroke-width="2"/>
<path d="M37.906 20.5975C37.4648 22.4502 37.3863 24.2867 34.995 24.2867C33.91 24.2867 31.3813 23.9223 30.6283 24.7898C30.144 25.3478 27.635 25.9637 26.8075 25.9637C25.9719 25.9637 25.1363 25.9637 24.3008 25.9637C23.7336 25.9637 25.5358 26.0294 25.9787 25.7028C26.4503 25.355 27.158 25.4443 27.7172 24.9575C28.3504 24.4064 28.8583 23.7568 29.4558 23.206C30.638 22.1164 31.5334 22.2996 32.9734 21.9204C34.2704 21.5788 35.1767 20.1876 36.4505 19.6658C37.1393 19.3837 37.7658 19.5643 38.4721 19.1814C39.1147 18.833 39.5656 18.108 40.2713 17.7467C42.1266 16.7967 41.8065 18.8422 41.1608 20.1316C40.2037 22.0429 38.9977 23.807 38.9977 25.9637C38.9977 28.3163 36.8855 28.6987 34.348 28.6468C32.7687 28.6144 31.9124 27.6361 30.6283 27.0444C30.0363 26.7715 28.917 26.9698 28.2631 26.9698C27.5353 26.9698 26.8075 26.9698 26.0798 26.9698C24.6791 26.9698 26.3086 26.6344 26.8075 26.6344C28.4562 26.6344 30.5491 27.188 31.8008 28.2369C32.9145 29.17 34.0513 30.075 34.995 31.1622C35.7832 32.0703 38.2339 31.9786 39.3616 32.6714" stroke="black" stroke-width="3" stroke-linecap="round"/>
<path d="M39.6575 26.6862C36.4389 27.1082 33.231 27.3485 29.9827 27.3485C29.2348 27.3485 28.3594 27.4248 27.6272 27.232C27.4466 27.1845 26.9639 26.9818 26.8487 26.8579C26.4839 26.4656 27.383 26.451 27.7204 26.306C28.49 25.9749 29.0027 25.4557 29.6234 24.8954C30.8809 23.7602 32.3334 22.8392 33.5758 21.6941C33.8875 21.4068 34.1043 20.8561 34.534 20.7005C35.1979 20.4601 35.7369 19.9319 36.4237 19.7561C36.8479 19.6475 37.6046 19.0727 38.034 19.1857C38.3571 19.2708 37.4349 19.9632 37.3619 20.0137C36.7206 20.457 36.0976 20.9343 35.4655 21.3874C34.9483 21.7582 34.2757 21.9321 33.8154 22.3564C33.5938 22.5606 32.6093 23.1993 32.591 23.4848C32.5447 24.2106 33.3156 24.6807 33.7887 25.1652C34.8084 26.2095 35.6085 27.3442 36.3971 28.5383C36.7945 29.1401 37.3055 29.6389 37.8077 30.1635C38.1514 30.5225 38.8289 30.881 37.9807 30.881C36.9602 30.881 36.0141 30.7369 35.1129 30.28C34.7406 30.0913 34.2022 29.8254 33.7887 29.771C33.1866 29.6917 32.6061 29.446 31.9922 29.446C31.3581 29.446 30.8268 29.1218 30.4085 28.6978C29.5051 27.7818 32.4427 27.6669 33.0102 27.3485C34.7758 26.358 35.3766 24.3003 36.1243 22.6569C36.9344 20.8764 38.3657 18.9688 40.7088 19.0692C41.5116 19.1036 41.0332 21.8894 40.8951 22.3319C40.4751 23.6776 39.8554 24.9858 39.205 26.2446C38.8845 26.865 38.8592 27.8977 38.8258 28.5751C38.7725 29.6543 38.9459 31.0043 39.4779 31.985C39.7378 32.4641 40.0817 32.8857 40.6157 33.1318C41.1594 33.3824 41.268 33.3197 41.4474 33.8984C41.7163 34.7656 41.0948 32.1142 41.0948 31.2122C41.0948 29.7827 41.3343 28.347 41.3343 26.907C41.3343 26.3896 41.2145 25.8842 41.2145 25.3615C41.2145 25.0673 41.1504 24.2672 41.3343 24.9874C41.6429 26.1962 41.724 27.2746 41.5738 28.5199C41.4523 29.5284 41.4541 28.5653 41.4541 28.1519C41.4541 26.583 41.6292 25.0532 41.6936 23.5094C41.7671 21.749 42.4122 19.9971 42.4122 18.2106C42.4122 17.5401 42.5643 16.7041 42.4056 16.0457C42.3585 15.8503 42.0203 16.4398 41.9997 16.4689C41.5992 17.0328 41.2183 17.6095 40.8086 18.1677C40.0958 19.1389 39.1349 19.9031 38.0938 20.5656C36.7502 21.4207 35.2215 21.9977 33.8154 22.7612C32.3103 23.5783 30.7393 24.4849 28.9979 24.8095C27.9737 25.0005 26.898 24.9199 25.8573 24.9199C25.223 24.9199 24.2307 24.9075 23.6615 25.1407C23.2864 25.2944 22.0733 25.4719 22.4837 25.4719C22.9842 25.4719 23.4332 25.4239 23.9343 25.3615C26.4914 25.043 29.2238 25.0989 31.7926 25.2143C33.3909 25.2861 35.0506 25.3303 36.6233 25.6313C38.1069 25.9153 39.5573 26.5362 40.8885 27.1891C41.4753 27.4769 42.9163 28.0638 43.1242 28.7346C43.2772 29.228 42.8971 29.9422 42.8913 30.4518C42.8786 31.5643 42.9964 32.9613 42.6518 34.0333C42.5191 34.4461 42.4122 34.9985 42.4122 35.4316C42.4122 35.9587 42.6518 36.4571 42.6518 36.9526" stroke="#323249" stroke-width="3" stroke-linecap="round"/>
<path d="M35.5063 31.4853C36.3794 31.7898 37.5053 32.242 37.7968 33.1152C37.8695 33.333 37.8617 33.5093 37.8758 33.742C37.9012 34.1646 38.7445 34.086 38.7445 34.652C38.7445 35.271 39.3876 35.3143 39.5958 35.7803C39.6681 35.9423 39.1179 35.7373 39.0605 35.6711C38.9915 35.5916 38.79 35.581 38.7489 35.4487C38.5122 34.685 37.8635 34.5396 37.279 34.0009C36.884 33.6368 36.3075 33.6048 35.9012 33.3052C35.6498 33.1199 35.2353 33.0036 34.9491 32.8321C34.6112 32.6297 34.2816 32.4115 33.9706 32.1769C33.7809 32.0339 33.5488 31.9199 33.3738 31.7765C33.1969 31.6316 32.8093 31.6976 32.584 31.6471C32.055 31.5285 31.4707 31.3328 31.079 30.9717C30.9231 30.8281 30.6157 30.2154 30.3988 30.1791C29.6346 30.051 28.8399 30.0497 28.161 29.6816C27.4197 29.2797 26.5569 29.1102 25.7784 28.7514C25.0623 28.4214 24.362 28.1249 23.6723 27.7404C23.2348 27.4965 22.8192 27.1768 22.3164 27.061C21.9193 26.9695 21.5137 26.9106 21.1317 26.7698C20.7306 26.6219 20.1878 26.5974 19.7627 26.5029C19.2082 26.3795 18.6211 26.2193 18.0558 26.1672C17.3041 26.0979 16.6326 25.8073 15.875 25.8073C15.6922 25.8073 15.5094 25.8073 15.3266 25.8073C14.9734 25.8073 15.0114 25.7623 15.252 25.6212C15.6198 25.4055 16.1874 25.2977 16.4718 24.9701C16.6415 24.7746 17.1618 24.7881 17.4196 24.7881C17.8329 24.7881 17.872 24.4674 18.1699 24.3149C18.45 24.1715 18.6653 24.0601 18.9992 24.0601C19.3828 24.0601 19.76 23.9146 20.1049 23.9146C20.4002 23.9146 20.5968 23.874 20.8772 23.7851C21.253 23.6661 21.6386 23.5742 22.0356 23.5506C22.3719 23.5306 22.7084 23.5126 23.0448 23.494C23.1704 23.487 23.5293 23.4332 23.4221 23.494C23.1412 23.6533 22.7843 23.7529 22.4788 23.9186C21.996 24.1803 21.4728 24.4844 21.022 24.7921C20.2962 25.2877 19.7367 25.5161 18.8412 25.5161C18.5248 25.5161 18.2912 25.5674 17.9812 25.6576C17.7005 25.7393 17.2252 25.7207 16.9852 25.8436C16.5757 26.0533 17.7315 26.3739 17.99 26.3006C18.1786 26.2471 18.9895 26.0145 19.1572 26.2076C19.2841 26.3538 19.6836 26.5242 19.868 26.6242C20.0082 26.7002 20.0441 26.8992 20.2234 26.8992C20.4342 26.8992 20.5799 26.8707 20.7763 26.8304C21.0095 26.7827 21.58 26.7623 21.746 26.9154C21.8546 27.0155 22.0595 26.986 22.1979 27.0852C22.3648 27.2049 22.5046 27.3212 22.6718 27.4411C22.7908 27.5264 23.0412 27.4816 23.1852 27.4816C23.4112 27.4816 23.5863 27.5846 23.8171 27.6272" stroke="#323249" stroke-linecap="round"/>
<path d="M25.0806 22.7498C25.3948 22.5304 25.7518 22.2402 26.1468 22.2402C26.3048 22.2402 26.4627 22.2402 26.6207 22.2402C26.8006 22.2402 26.8831 22.0946 27.0551 22.0946C27.6318 22.0946 28.2099 21.6522 28.7927 21.5851C29.3884 21.5164 29.7929 20.7744 30.3723 20.7115C30.6745 20.6788 31.1278 20.5267 31.3245 20.3152C31.4368 20.1944 31.8062 20.0313 31.9607 19.9472C32.9883 19.3875 33.9038 18.6609 34.8743 18.0181" stroke="#323249" stroke-linecap="round"/>
<path d="M39.5342 16.2712C39.0522 16.8913 38.4327 17.4928 38.0642 18.172C37.9048 18.4659 37.5743 18.8461 37.3227 19.0779C37.2426 19.1517 37.125 19.155 37.0506 19.2235C36.9734 19.2947 37.2662 19.2677 37.3753 19.264C38.0666 19.2401 38.7241 19.252 39.3938 19.4419C41.0253 19.9046 41.1925 21.2206 41.6667 22.5317" stroke="#323249" stroke-linecap="round"/>
<path d="M44.0363 22.3861C44.1394 23.0827 44.4713 23.7078 44.5848 24.388C44.7094 25.1346 44.7471 25.8793 44.7471 26.6527C44.7471 27.3539 44.6366 28.2519 44.9051 28.9215C44.9268 28.9756 45.0617 29.1821 45.1245 29.0348C45.3527 28.4993 45.4379 27.8787 45.5501 27.32C45.8396 25.8791 46.0167 24.426 46.2434 22.9765C46.2554 22.8995 46.4169 21.8212 46.4672 22.0221C46.5829 22.4843 46.5557 22.9994 46.5813 23.4699C46.6438 24.6236 46.6897 25.7772 46.7261 26.9318C46.7735 28.4405 46.9062 29.9513 46.8752 31.4613C46.8659 31.9172 46.8007 32.3729 46.8007 32.8283C46.8007 32.9338 46.7562 32.6212 46.7392 32.5169C46.3186 29.9323 45.8883 27.3409 45.6072 24.7398C45.4685 23.4569 45.3012 19.5905 45.3834 20.8776C45.4877 22.5127 45.9204 24.1374 46.0723 25.7751C46.1019 26.0944 46.1568 26.4177 46.1688 26.7377C46.1845 27.1584 46.2793 25.9018 46.3355 25.4839C46.5295 24.044 46.627 22.5943 46.8358 21.1566C46.9024 20.6979 46.8232 19.9342 47.0551 19.5066C47.09 19.4424 47.1002 20.0259 47.099 20.0404C47.0058 21.2266 46.5859 22.3712 46.1469 23.4821C46.1369 23.5074 45.6459 24.8497 45.4273 24.7722C45.3144 24.7322 45.2656 24.0327 45.2649 24.028C45.1287 23.0941 45.0243 22.156 45.0016 21.2132C44.9527 19.18 45.3584 17.4445 46.4672 15.705C46.5128 15.6335 46.8031 15.2033 46.9411 15.4623C47.0994 15.7595 47.0592 16.3198 47.0683 16.6109C47.1055 17.7979 47.053 18.9866 46.9498 20.1698C46.8467 21.3523 46.6982 22.5448 46.5242 23.7207C46.4483 24.2338 46.4213 24.3014 46.3092 23.753C45.7923 21.2245 45.9235 18.6653 46.1688 16.1216C46.1927 15.8742 46.2616 15.6179 46.3443 15.3815C46.7171 14.3164 46.6839 13.1593 46.9147 12.0652C46.9155 12.0615 46.9879 11.6734 46.9542 11.8751C46.8895 12.2631 46.6769 12.6631 46.5111 13.0196C45.8639 14.4113 44.999 15.6695 44.01 16.8778C43.947 16.9548 43.1924 17.9952 43.2553 17.5168C43.3517 16.7836 43.7779 16.093 44.1153 15.4381C44.5031 14.6852 44.8692 13.9224 45.2649 13.1733C45.5715 12.5929 45.7595 11.953 46.1249 11.4019C46.3403 11.0772 46.4751 11.0857 46.2039 11.4666C45.703 12.1701 45.2705 13.14 44.5453 13.6869C44.1679 13.9715 43.8109 14.1887 43.4834 14.5241C43.1776 14.8373 43.1691 15.3234 42.8516 15.616C42.6356 15.815 42.2663 16.1126 42.1407 16.344" stroke="#323249" stroke-linecap="round"/>
<path d="M44.1152 30.6845C44.6394 32.7703 45.1515 34.6524 46.647 36.3262C47.4807 37.2593 48.3088 38.1876 49.0735 39.1693C49.4574 39.6622 48.741 38.8615 48.6566 38.7648C47.4292 37.3584 46.6126 35.6104 45.6773 34.0331C44.9804 32.858 44.2882 31.4656 44.0011 30.1425C43.8503 29.4474 44.2292 30.0524 44.4311 30.3528C45.5631 32.0369 46.8434 33.6255 47.9677 35.3151C48.707 36.4261 49.3588 37.6465 50.2582 38.6597C50.2666 38.6692 50.5553 38.9497 50.4118 38.8174C49.9449 38.3871 49.5081 37.9309 49.0296 37.5111C47.7968 36.4298 46.5799 35.3517 45.2034 34.4213C44.1278 33.6943 42.7083 33.4507 41.3991 33.4507C41.0361 33.4507 40.4128 33.2757 40.4031 33.7419C40.3673 35.4569 42.3765 36.2483 43.5448 37.3251C43.7529 37.5169 43.8475 37.7254 43.9397 37.9802C44.4101 39.281 45.9164 39.886 46.9848 40.7141C47.0055 40.7301 47.0406 40.7955 47.0375 40.7708C46.9511 40.081 46.7909 39.371 46.6601 38.692C46.4056 37.3694 46.2415 35.967 45.5105 34.7813C45.0901 34.0992 45.4054 35.3106 45.4579 35.4971C45.7168 36.4164 45.8277 37.3714 46.3223 38.2148C46.666 38.8008 47.059 39.4235 47.2744 40.059C47.6387 41.1334 48.0635 42.4093 47.7659 43.537C47.6473 43.9863 47.4324 44.3719 47.4324 44.8393C47.4324 45.6233 47.03 43.3047 46.6689 42.5947C46.4674 42.1985 46.1806 41.8308 45.9932 41.4421C45.8648 41.1758 45.5713 40.8626 45.3833 40.6171C45.2706 40.47 45.1654 40.3331 45.0454 40.1884C44.5727 39.6187 43.615 39.2258 43.4044 38.5464" stroke="#323249" stroke-linecap="round"/>
<path d="M43.6414 38.8376C43.6487 39.1151 43.6414 39.3289 43.6414 39.5656C43.6414 39.7404 43.6899 39.8198 43.8388 39.9296C44.0724 40.1018 44.2897 40.3932 44.4926 40.6009C44.7002 40.8136 44.908 41.0855 44.9884 41.3451C45.0314 41.4837 45.225 41.6341 45.2824 41.8061C45.3368 41.969 45.3455 42.147 45.4974 42.2591C45.6815 42.3948 45.8281 42.7613 45.9932 42.9304C46.2272 43.17 46.2306 43.4985 46.5242 43.715C46.7793 43.9031 46.883 44.2442 47.0814 44.4793C47.2415 44.669 47.4766 44.8156 47.5904 45.0253C47.8437 45.4921 47.8244 46.0253 48.1784 46.4448C48.2489 46.5284 48.2291 46.6812 48.2574 46.7805C48.3646 47.1572 48.4065 47.5246 48.6172 47.8644" stroke="#323249" stroke-linecap="round"/>
<path d="M48.696 8.48184C48.0497 9.17883 47.2906 9.86859 46.7039 10.6091C46.317 11.0975 46.0101 11.6671 45.5543 12.1055C45.2632 12.3854 44.9389 12.6777 44.6241 12.9264C44.1852 13.2732 43.6666 13.7456 43.3253 14.1761C43.1605 14.3839 42.8124 14.8958 42.5706 14.9971C42.1703 15.1648 42.2195 15.0048 42.2195 14.7059C42.2195 14.5971 42.1914 14.4507 42.2239 14.346C42.2362 14.3062 42.4272 14.2289 42.474 14.1599C42.5826 13.9998 42.8345 13.9252 42.9742 13.7596C43.0441 13.6767 43.1158 13.4822 43.2112 13.432C43.3377 13.3654 43.4768 13.3246 43.5798 13.2298C43.728 13.0931 43.8521 12.9874 43.9396 12.8173C44.015 12.6704 43.9873 12.4578 44.1151 12.34C44.2002 12.2616 44.3682 12.2304 44.431 12.158C44.5789 11.9876 44.8814 11.9821 45.0453 11.8143C45.2423 11.6126 45.4034 11.2882 45.6552 11.1025C46.5797 10.4208 47.2222 9.44075 47.8623 8.53846C48.2284 8.0224 48.4149 7.43155 48.696 6.87628C49.0178 6.2408 49.4265 5.82302 49.8807 5.27881" stroke="#323249" stroke-linecap="round"/>
<path d="M14.4767 25.2763C14.144 25.3977 13.7974 25.4624 13.4717 25.5482C13.3 25.5934 13.1826 25.6138 12.9773 25.6138C12.5132 25.6138 12.0673 25.7151 11.6021 25.7151C11.4607 25.7151 11.3283 25.6138 11.1809 25.6138C10.9752 25.6138 10.7719 25.5463 10.5584 25.5463C10.3011 25.5463 10.05 25.4788 9.79145 25.4788C9.71147 25.4788 9.66038 25.445 9.77314 25.445C9.88706 25.445 10.001 25.445 10.1149 25.445C10.4399 25.445 10.75 25.4788 11.0711 25.4788C11.1462 25.4788 11.4048 25.415 11.4658 25.37C11.5205 25.3297 11.5944 25.3314 11.657 25.3025C11.7624 25.254 11.8276 25.1745 11.95 25.1488C12.2774 25.0798 12.6048 25.0065 12.9305 24.92C13.3056 24.8204 13.6725 24.7444 14.0535 24.6613C14.2919 24.6092 14.5241 24.56 14.7615 24.5C14.9781 24.4452 15.2332 24.3683 15.4573 24.365C15.9106 24.3582 16.2864 24.3863 16.7105 24.23" stroke="#323249" stroke-width="0.5" stroke-linecap="round"/>
<path d="M12.7922 25.5127C13.0603 25.75 13.2842 25.884 13.6345 25.884C13.8259 25.884 14.0699 25.7135 14.257 25.7902C14.3581 25.8316 14.4677 25.8045 14.5662 25.8427C14.6788 25.8864 14.8727 25.8766 14.9955 25.9008C15.3428 25.9694 15.7107 25.9849 16.0636 26.0265C16.329 26.0578 16.5966 26.0972 16.8387 26.2046C17.001 26.2766 17.1722 26.3809 17.3493 26.4165C17.6275 26.4724 17.9917 26.5406 18.2485 26.6527C18.4199 26.7276 18.5742 26.8122 18.7612 26.8553C18.9312 26.8944 19.1506 27.0566 19.3105 27.0653C19.622 27.0822 19.9224 27.1525 20.226 27.2265C20.6962 27.3413 21.1285 27.5532 21.6012 27.6653C21.7286 27.6955 21.8923 27.7341 22.0203 27.7403C22.1507 27.7466 22.2746 27.7225 22.3865 27.7741" stroke="#323249" stroke-width="0.5" stroke-linecap="round"/>
<path d="M43.6711 23.0346C42.4971 23.6006 41.2786 23.9571 40.0117 24.2883C38.7125 24.628 37.0352 25.226 35.649 24.9822C35.2357 24.9095 34.7373 24.5734 34.5524 24.2008C33.9868 23.0616 34.2219 21.6968 35.351 20.9938C35.9982 20.5908 36.2018 20.3057 36.537 19.5768C36.6148 19.4077 37.0079 19.0595 37.0079 18.8946C37.0079 18.7862 36.546 18.8462 36.698 18.8363C36.9295 18.8212 37.0807 18.4315 37.3416 18.4164C37.6493 18.3987 37.9677 18.1016 38.2535 18.1016C38.9961 18.1016 39.6013 17.6463 40.1309 17.1569C40.3621 16.9433 40.6979 16.6771 40.9891 16.5505C41.1527 16.4794 41.266 16.5525 41.3944 16.3989C41.588 16.1674 41.6125 15.8881 41.9547 15.7925C42.2532 15.709 42.8711 15.3837 43.0275 15.1161C43.0325 15.1074 43.3873 14.7545 43.2837 14.7545C43.0939 14.7545 42.7667 15.0446 42.646 15.1627C42.4983 15.3073 42.3993 15.5208 42.2527 15.6642C42.0721 15.8409 41.8826 15.7602 41.7401 16.0024C41.6226 16.202 41.3469 16.4086 41.0964 16.4222C40.9954 16.4277 40.9286 16.4293 40.8342 16.4689C40.8272 16.4718 41.3386 15.7771 41.454 15.6642C41.9555 15.1735 42.8927 14.7518 43.5639 14.533" stroke="#323249" stroke-width="3" stroke-linecap="round"/>
<path d="M39.6166 35.2853C39.8612 35.1919 40.1473 35.032 40.4115 34.9923C40.4372 34.9884 40.4661 34.9958 40.4902 34.9841C40.5077 34.9755 40.0484 34.7751 40.0115 34.7581C39.4048 34.4791 38.8304 34.113 38.3213 33.6873C37.8519 33.2949 37.3636 32.9236 36.8955 32.5281C36.2772 32.0057 35.4791 31.625 34.7434 31.2838C34.5997 31.2171 34.1768 31.0127 34.3317 31.048C34.889 31.175 35.44 31.3475 35.9851 31.5163C37.5531 32.0019 39.1137 32.5084 40.6843 32.9866C43.243 33.7657 45.7965 34.5734 48.2987 35.5146C48.5049 35.5921 48.7734 35.6967 48.9815 35.7863C49.0601 35.8202 49.2044 35.866 49.2559 35.9484C49.3714 36.1332 49.39 36.3926 49.4066 36.6017C49.4446 37.0822 49.5597 37.7105 48.8777 37.6758C48.4316 37.653 47.991 37.374 47.5774 37.2304C47.3273 37.1436 47.0676 37.0752 46.8059 37.0307C46.3804 36.9583 45.9548 36.6674 45.5809 36.4642" stroke="#323249" stroke-width="3" stroke-linecap="round"/>
<path d="M40.9118 35.1968C40.9118 35.4041 40.9322 35.6141 40.875 35.8157C40.8295 35.9758 40.8356 35.9037 40.9419 35.8517C41.0709 35.7886 41.1103 35.9336 41.213 35.9336" stroke="#323249" stroke-width="3" stroke-linecap="round"/>
<path d="M41.5443 35.2556C41.5443 35.6038 41.5443 35.952 41.5443 36.3002C41.5443 36.3416 41.5337 36.4054 41.546 36.4476C41.5526 36.4703 41.6001 36.5064 41.6179 36.5229C41.7038 36.6022 41.8117 36.5818 41.9208 36.5818C42.0102 36.5818 42.1238 36.749 42.1618 36.8176C42.2592 36.9935 42.4247 37.1232 42.5919 37.2302C42.8449 37.392 43.1222 37.5334 43.2764 37.8049C43.3336 37.9056 43.4 37.948 43.5157 37.9686C43.5866 37.9812 43.5667 38.0428 43.5994 38.0783C43.6355 38.1175 43.7023 38.1332 43.7433 38.1733" stroke="#323249" stroke-width="3" stroke-linecap="round"/>
<path d="M25.0069 23.4377C24.6715 23.5409 24.3303 23.7619 23.971 23.7619C23.8168 23.7619 23.7559 23.7799 23.6647 23.8945C23.5837 23.9965 23.5527 24.0576 23.4405 24.1221C23.2413 24.2368 23.1258 24.503 22.9886 24.6755" stroke="#323249" stroke-width="3" stroke-linecap="round"/>
<path d="M27.0854 27.8291C27.6377 28.0129 28.2943 28.1275 28.7907 28.4512C28.9329 28.544 29.0728 28.5907 29.2241 28.6608C29.2536 28.6745 29.3369 28.7132 29.2676 28.7132C29.1843 28.7132 29.1099 28.69 29.0333 28.6575C28.5639 28.4586 28.12 28.2757 27.6243 28.1369C27.063 27.9798 26.5141 27.8364 25.9725 27.6244C25.6822 27.5108 25.3767 27.3916 25.1508 27.1742C25.028 27.0559 24.9187 26.9249 24.7676 26.8418C24.6913 26.7998 24.5837 26.7637 24.5551 26.6797" stroke="#323249" stroke-width="3" stroke-linecap="round"/>
<path d="M18.681 25.1177C18.9571 25.1177 19.2332 25.1177 19.5094 25.1177C19.5384 25.1177 19.6254 25.1177 19.5964 25.1177C19.4854 25.1177 19.3358 25.268 19.2366 25.3174C19.1008 25.3851 18.9613 25.4499 18.8182 25.5008C18.704 25.5415 18.6266 25.6482 18.4936 25.6482C18.4394 25.6482 18.0518 25.7172 18.0518 25.6318C18.0518 25.4525 19.0441 25.3399 19.1429 25.3305C19.5171 25.2952 19.8409 25.1766 20.2173 25.1766" stroke="#323249" stroke-width="3" stroke-linecap="round"/>
<path d="M15.8195 25.53C15.518 25.5264 15.2171 25.5005 14.9158 25.5005C14.8759 25.5005 14.6854 25.5304 14.7066 25.4579C14.7463 25.3221 15.0615 25.3282 15.1635 25.2942C15.2808 25.2551 15.4096 25.2353 15.5333 25.2353C15.6026 25.2353 15.6664 25.243 15.7291 25.2123C15.7621 25.1962 15.5662 25.2211 15.6555 25.1337C15.7023 25.0879 16.0891 24.9871 15.8496 25.1043C15.6545 25.1997 15.3583 25.2243 15.14 25.2631C14.977 25.2921 14.8244 25.2862 14.6597 25.322C14.5533 25.3452 14.4566 25.3825 14.3568 25.4104C14.2834 25.431 14.1998 25.4267 14.1259 25.4481C14.0468 25.471 13.9977 25.5403 13.9351 25.5578C13.7914 25.598 13.5898 25.5812 13.4397 25.5889C13.2273 25.5999 12.9907 25.7076 12.7703 25.6413C12.6861 25.616 12.5997 25.5796 12.526 25.5316C12.4964 25.5123 12.5969 25.5237 12.6314 25.5152C12.7575 25.4844 12.8987 25.4939 13.0281 25.4776C13.133 25.4643 13.217 25.474 13.3059 25.4989C13.3855 25.5211 13.482 25.4764 13.5602 25.507C13.6372 25.5372 13.7102 25.5397 13.7878 25.5742C13.8591 25.6059 13.9426 25.5669 14.0121 25.5955C14.1417 25.6489 14.2959 25.6694 14.4338 25.6773C14.5354 25.6832 14.6402 25.7952 14.735 25.7952C14.8373 25.7952 15.0014 25.8062 15.0965 25.8476C15.2113 25.8975 15.3527 25.8853 15.473 25.9115C15.6036 25.9398 15.7439 25.9362 15.8663 25.9704C16.1235 26.0423 16.3988 26.0684 16.6763 26.1178C16.7378 26.1287 16.8159 26.1008 16.8738 26.1259C16.9317 26.1511 17.0076 26.1927 17.0696 26.2062C17.1707 26.2282 17.2508 26.2831 17.349 26.3191C17.3818 26.3312 17.1286 26.3166 17.0846 26.311C16.395 26.2222 15.4369 26.0235 15.0848 25.3875C15.0583 25.3397 14.9316 25.218 14.9476 25.1632C14.9574 25.1297 15.3001 25.1007 15.3308 25.0944C15.533 25.0532 15.7255 25.0584 15.9333 25.0584C16.2595 25.0584 16.5831 25.0349 16.8972 24.9471C17.0217 24.9123 17.1426 24.857 17.2654 24.8227C17.3706 24.7932 17.4537 24.6883 17.5666 24.6753C17.5912 24.6725 17.6992 24.6181 17.6988 24.618C17.6179 24.5863 17.4704 24.624 17.3926 24.6393C17.3555 24.6465 17.0868 24.7048 17.252 24.7048C17.3667 24.7048 17.4738 24.6973 17.585 24.6638C18.1738 24.4866 18.6923 24.1201 19.2669 23.9025C20.0895 23.5909 20.9694 23.2284 21.8491 23.115C22.113 23.0809 22.3784 23.0722 22.644 23.0544C23.036 23.0281 23.3955 22.8346 23.7719 22.7466C23.9405 22.7071 24.1191 22.7092 24.2823 22.65C24.4503 22.589 24.6058 22.4844 24.766 22.406" stroke="#323249" stroke-linecap="round"/>
<path d="M21.121 27.1215C21.3878 27.1215 21.6203 27.2607 21.7837 27.4605C21.851 27.5427 21.9598 27.5332 22.0548 27.5571C22.2924 27.6168 22.5193 27.6225 22.7627 27.6225C22.9165 27.6225 23.0391 27.7699 23.2145 27.7699C23.351 27.7699 23.4626 27.9393 23.5911 27.9467C23.6338 27.9492 23.7751 27.9682 23.817 27.9909C23.9082 28.0405 23.9321 28.1239 24.0061 28.189C24.105 28.2761 24.376 28.3878 24.5098 28.3151C24.6156 28.2576 24.7244 28.3206 24.8194 28.3528C24.9497 28.3969 25.1061 28.3866 25.2294 28.433C25.291 28.4562 25.3678 28.4997 25.4286 28.5067C25.45 28.5091 25.4824 28.5497 25.4888 28.5296C25.5406 28.366 25.5319 28.1895 25.5457 28.0188C25.591 27.4591 25.611 26.8949 25.6796 26.3373C25.6982 26.1858 25.6864 26.2079 25.79 26.2079C25.9414 26.2079 25.8207 28.6954 25.8202 28.7425" stroke="#323249" stroke-linecap="round"/>
<path d="M28.983 29.7446C29.1117 29.8345 29.2443 29.921 29.3897 29.9526C29.4507 29.9658 29.5647 30.1844 29.5252 30.1867C29.4609 30.1904 29.2563 30.215 29.2123 30.172C29.1934 30.1535 29.3003 30.1572 29.3144 30.1572C29.3968 30.1572 29.5088 30.1352 29.5855 30.1638C29.6745 30.197 29.8061 30.2311 29.8566 30.3177C29.8859 30.3679 29.9776 30.4487 30.0373 30.4519C30.1854 30.46 30.4196 30.4332 30.5193 30.5551C30.651 30.7162 31.0119 30.7204 31.1971 30.7483C31.3523 30.7717 31.4306 30.9939 31.5569 31.0774C31.6974 31.1703 31.9125 31.1738 32.0706 31.2493C32.2306 31.3257 32.3785 31.4026 32.5493 31.454C32.6507 31.4845 32.701 31.5385 32.7718 31.6079C32.8261 31.661 32.8871 31.6745 32.9442 31.7192C32.9746 31.743 33.1094 31.8677 33.1099 31.8731C33.1182 31.9752 33.1456 32.0729 33.2605 32.0729" stroke="#323249" stroke-linecap="round"/>
<path d="M33.2606 32.0728C33.4805 32.1836 33.8003 32.4264 34.0589 32.4264C34.292 32.4264 34.538 32.5374 34.7601 32.6098C34.9356 32.667 35.0932 32.8075 35.2337 32.9143C35.3581 33.009 35.4888 33.0508 35.6336 33.1108C35.7013 33.1388 35.7662 33.2569 35.8211 33.3105C35.8759 33.3642 35.9401 33.3996 35.9951 33.4514C36.0777 33.5291 36.0876 33.6036 36.1959 33.6642C36.2759 33.7089 36.414 33.7563 36.5005 33.7805C36.7267 33.8437 36.8813 34.0518 37.1097 34.1292C37.2412 34.1737 37.2208 34.3645 37.3724 34.4305C37.4931 34.483 37.5999 34.5821 37.7322 34.6057C37.7839 34.6148 37.822 34.6377 37.8694 34.6597C38.0398 34.7386 37.9923 34.8764 38.0502 35.0297C38.0832 35.1171 38.2661 35.1984 38.3514 35.2262" stroke="#323249" stroke-linecap="round"/>
<path d="M34.3148 32.7212C34.4821 32.7479 34.6062 32.7742 34.76 32.8358C34.8806 32.8841 35.0289 32.9285 35.1281 33.0159C35.2035 33.0823 35.2144 33.1274 35.2654 33.2058C35.3124 33.2782 35.5266 33.2714 35.6101 33.3041C35.6729 33.3286 35.7096 33.303 35.7373 33.3761C35.7587 33.4327 35.791 33.4934 35.8511 33.5169C36.0029 33.5763 36.1438 33.6815 36.3063 33.7249C36.3936 33.7481 36.4783 33.7898 36.5607 33.8264C36.6981 33.8875 36.6328 34.0515 36.7012 34.1751C36.7686 34.2967 36.8908 34.2668 36.9958 34.2553C37.4264 34.2085 37.8392 34.6904 38.1103 34.9315" stroke="#323249" stroke-linecap="round"/>
<path d="M41.4238 37.4661C41.4762 37.7287 41.6026 37.7696 41.8305 37.8934C41.9896 37.9799 42.0121 38.0537 42.0865 38.2176C42.1538 38.3656 42.4124 38.4005 42.525 38.5107C42.5694 38.5541 42.6123 38.6253 42.6304 38.6875C42.6398 38.7195 42.7519 38.8029 42.7794 38.8365C42.8694 38.9465 43.0377 39.0097 43.1408 39.1165C43.2305 39.2094 43.2201 39.365 43.3216 39.4701C43.3712 39.5216 43.4365 39.5796 43.4655 39.6469C43.4755 39.6702 43.4609 39.8373 43.4421 39.8238C43.3453 39.754 43.3432 39.5371 43.2446 39.4406C43.1995 39.3965 43.1915 39.3159 43.1408 39.2867C43.0238 39.2194 43.0091 39.0607 42.9601 38.9527C42.8503 38.7111 42.7512 38.472 42.6287 38.2323" stroke="#323249" stroke-linecap="round"/>
<path d="M39.7973 15.8047C39.7986 15.7968 39.8097 15.4763 39.9111 15.5754C39.9614 15.6247 39.7461 15.8278 39.727 15.8505C39.6482 15.9441 39.4611 16.0961 39.3304 16.0961C39.2555 16.0961 39.3741 15.9757 39.3906 15.9668C39.4842 15.9159 39.564 15.8597 39.6533 15.8047C39.881 15.6644 40.0502 15.4508 40.2993 15.3331C40.5951 15.1934 40.9588 15.1762 41.2331 14.9942C41.4707 14.8366 41.6772 14.5926 41.8607 14.3753C41.9354 14.2868 42.0042 14.1996 42.1033 14.1379C42.1417 14.114 42.183 14.1019 42.2222 14.0806C42.2677 14.0558 42.2587 14.0101 42.2975 13.984C42.4021 13.9136 42.4325 13.775 42.4933 13.668C42.5346 13.5952 42.4149 13.7983 42.3996 13.8317C42.298 14.0526 42.0963 14.2402 41.936 14.4195" stroke="#323249" stroke-linecap="round"/>
<path d="M49.9871 1.02246C49.7625 1.34203 49.4936 1.63416 49.2934 1.95244C49.2532 2.01644 49.1633 2.15352 49.0787 2.15352C48.9986 2.15352 49.0325 1.9589 49.0035 1.89499C48.9811 1.84583 48.8589 1.71165 48.798 1.816C48.7046 1.97577 48.7649 2.27846 48.7649 2.46052C48.7649 2.66519 48.7649 2.86985 48.7649 3.07452C48.7649 3.23703 48.6926 3.42774 48.6255 3.57542C48.5074 3.83537 48.4677 4.09296 48.4677 4.38332C48.4677 4.59814 48.4346 4.81161 48.4346 5.02964C48.4346 5.34816 48.4614 5.67759 48.4089 5.99193C48.3907 6.10126 48.4122 6.21273 48.3998 6.32227C48.3821 6.47787 48.322 6.62846 48.3025 6.78547C48.2545 7.17329 48.1158 7.54646 48.0713 7.93807" stroke="#323249" stroke-linecap="round"/>
<path d="M45.0325 11.6546C45.1544 11.4249 45.318 11.228 45.5022 11.0478C45.5964 10.9557 45.5936 10.8008 45.6527 10.6851C45.6954 10.6015 45.8095 10.5023 45.8656 10.4338C45.9569 10.3221 46.0639 10.2317 46.1555 10.1196C46.2181 10.043 46.2317 9.93577 46.2876 9.85209C46.3418 9.77098 46.4325 9.70321 46.5023 9.63485C46.6909 9.45038 46.9642 9.30582 46.9813 9.00469C47.0042 8.60061 47.2824 8.24531 47.4914 7.9239C47.5771 7.79218 47.6174 7.61898 47.7006 7.48584C47.7619 7.38773 47.8371 7.29775 47.8896 7.195C48.0034 6.97226 48.1 6.70664 48.1539 6.4643C48.1831 6.33254 48.1244 6.15342 48.1777 6.03163C48.2278 5.91735 48.2695 5.78569 48.2695 5.65999C48.2695 5.56402 48.3355 5.47992 48.3355 5.38531C48.3355 5.3099 48.3355 5.2345 48.3355 5.1591C48.3355 4.68727 48.3685 4.22189 48.3685 3.75335C48.3685 3.66007 48.3908 3.53109 48.4273 3.44635C48.4977 3.2827 48.5048 3.10452 48.5337 2.9275C48.5512 2.82055 48.6207 2.73103 48.6585 2.63127C48.8279 2.1837 48.7923 1.61264 49.0622 1.21655" stroke="#323249" stroke-linecap="round"/>
<path d="M48.5668 4.125C48.5249 4.42261 48.5 4.69213 48.376 4.96521C48.3472 5.02844 48.3562 5.09759 48.3283 5.15911C48.2858 5.2526 48.2357 5.3823 48.2108 5.48227C48.189 5.57007 48.1424 5.72307 48.1374 5.80543C48.1334 5.87265 48.1584 5.96937 48.1301 6.03164C48.0748 6.15331 48.1284 6.35777 48.0457 6.45893C47.9735 6.54713 48.0301 6.79304 47.9796 6.90417C47.9036 7.07155 47.857 7.29823 47.7998 7.47867C47.5961 8.12064 47.3655 8.68672 46.9557 9.23092C46.8744 9.33876 46.8154 9.45795 46.7171 9.55408C46.646 9.62365 46.5626 9.69481 46.5189 9.78029" stroke="#323249" stroke-linecap="round"/>
<path d="M46.3121 43.4536C46.3121 43.5437 46.3266 43.6335 46.3266 43.7226C46.3266 43.7464 46.3231 43.7643 46.3379 43.7824C46.3679 43.8191 46.385 43.8229 46.4343 43.8367C46.4854 43.851 46.5182 43.9383 46.5405 43.9775C46.5807 44.0484 46.6445 44.1025 46.682 44.1757C46.7086 44.2279 46.7579 44.2852 46.7897 44.3346C46.8206 44.3826 46.811 44.4533 46.8476 44.4951C46.8674 44.5177 46.8921 44.5357 46.9055 44.5651C46.9341 44.628 46.9829 44.6734 47.0036 44.7421C47.0256 44.8153 47.0206 44.8912 47.0365 44.9615C47.0546 45.0409 47.1015 45.1129 47.1362 45.1865C47.1919 45.3044 47.2115 45.3871 47.2303 45.5192C47.2593 45.7231 47.3188 45.9137 47.3863 46.1045C47.4005 46.1445 47.4172 46.1759 47.441 46.2115C47.4808 46.2711 47.4722 46.3436 47.4916 46.4113C47.5219 46.5166 47.5597 46.6186 47.5889 46.7243C47.6264 46.8602 47.6153 47.0049 47.6516 47.142C47.7244 47.4167 47.6498 47.7215 47.7738 47.9845" stroke="#323249" stroke-linecap="round"/>
<path d="M46.2544 43.5242C46.3369 43.6702 46.4715 43.8794 46.4715 44.0551C46.4715 44.1014 46.5138 44.1605 46.5511 44.1896C46.5955 44.2244 46.6173 44.3265 46.6339 44.3769C46.681 44.5203 46.7558 44.6343 46.8252 44.7702C46.8677 44.8533 46.889 44.9503 46.9273 45.0329C46.9493 45.0802 46.9508 45.1309 46.97 45.1792C46.9843 45.2152 47.0069 45.2552 47.0069 45.294C47.0069 45.3297 47.034 45.3574 47.0359 45.3931C47.0373 45.4191 47.0287 45.4539 47.0391 45.4781C47.0698 45.5494 47.0601 45.6255 47.101 45.6976C47.133 45.7539 47.1383 45.8263 47.1581 45.8871C47.1741 45.9364 47.2054 45.9682 47.224 46.0091C47.3211 46.2228 47.382 46.455 47.4845 46.6675C47.528 46.7576 47.5229 46.881 47.5279 46.979C47.5328 47.0742 47.589 47.1856 47.6365 47.2692C47.6593 47.3094 47.6455 47.389 47.6509 47.4336C47.6584 47.4945 47.6582 47.555 47.6582 47.6161C47.6582 47.7026 47.6871 47.7634 47.6871 47.8568" stroke="#323249" stroke-linecap="round"/>
<path d="M45.2773 10.9858C45.3176 10.8885 45.3289 10.821 45.3319 10.7191C45.3332 10.6736 45.3507 10.6363 45.3824 10.6084C45.4368 10.5605 45.4899 10.4976 45.5278 10.4346C45.5457 10.4047 45.5796 10.3878 45.6045 10.3634C45.6472 10.3216 45.6782 10.2558 45.7135 10.2074C45.8123 10.0721 45.9165 9.9404 46.0326 9.82011C46.1386 9.71028 46.2067 9.57863 46.3174 9.4704C46.3733 9.41562 46.4284 9.35699 46.4809 9.30048C46.5562 9.21954 46.5605 9.09595 46.6364 9.01597C46.6888 8.96079 46.7414 8.86614 46.7778 8.79864C46.8757 8.61709 46.9729 8.42181 47.0928 8.25332C47.1789 8.13244 47.2745 8.01813 47.3614 7.89768C47.5057 7.6977 47.5876 7.47941 47.6643 7.24766C47.9958 6.24595 48.2254 5.21625 48.4762 4.19312" stroke="#323249" stroke-linecap="round"/>
<path d="M48.9124 1.72144C48.7913 1.74338 48.6943 1.73873 48.6943 1.86369C48.6943 1.92123 48.6609 1.97076 48.6579 2.02373C48.6529 2.11198 48.6579 2.20203 48.6579 2.29046C48.6579 2.41022 48.5718 2.52984 48.567 2.65005C48.5651 2.69869 48.5307 2.74637 48.5307 2.79724C48.5307 2.85684 48.5307 2.91645 48.5307 2.97605C48.5307 3.23429 48.5024 4.00231 48.459 3.74759C48.4309 3.5827 48.5125 3.42315 48.5125 3.25957C48.5125 3.15095 48.5188 3.0407 48.5085 2.93258C48.5053 2.89958 48.458 2.62535 48.458 2.73105C48.458 2.90776 48.4216 3.09304 48.4216 3.26846C48.4216 3.38701 48.4216 3.50556 48.4216 3.6241C48.4216 3.8139 48.3853 3.99761 48.3853 4.18522C48.3853 4.45372 48.2399 4.6999 48.2399 4.96664C48.2399 5.08442 48.2202 5.22598 48.1945 5.34203C48.1724 5.44136 48.1672 5.55331 48.1672 5.65519C48.1672 5.74187 48.1552 5.82667 48.149 5.91303C48.1246 6.25303 48.1174 6.59065 48.1127 6.93154" stroke="#323249" stroke-linecap="round"/>
<path d="M47.3037 8.156C47.3252 8.02704 47.4016 7.93282 47.4544 7.81928C47.5279 7.66096 47.5982 7.46029 47.605 7.28604C47.61 7.15928 47.7014 7.05229 47.7014 6.92443C47.7014 6.7459 47.7256 6.56039 47.7711 6.38725C47.7816 6.34731 47.8032 6.31276 47.8153 6.27392C47.8327 6.21792 47.837 6.15727 47.8641 6.10425C47.9445 5.94698 47.9011 5.74638 47.9532 5.58083C47.9872 5.47276 47.9952 5.35196 48.0269 5.24083C48.0723 5.0812 48.0562 4.91555 48.0777 4.75213C48.1301 4.35514 48.2743 3.96602 48.3047 3.56444C48.3224 3.33123 48.4136 3.12279 48.4755 2.90083C48.5577 2.60574 48.5961 2.30077 48.6536 2.00073" stroke="#323249" stroke-linecap="round"/>
<path d="M43.2491 21.7494C44.0018 23.6825 44.4959 25.6697 44.8543 27.7074C44.9981 28.5251 44.9049 27.4498 44.9033 27.3478C44.8501 24.0691 44.0392 20.8493 44.0211 17.5776C44.0171 16.856 44.1191 16.14 44.1191 15.4198C44.1191 15.39 44.0735 14.7698 44.1068 14.8444C44.4148 15.5332 44.2673 16.7012 44.1681 17.3978C44.0497 18.2295 43.7676 19.0274 43.629 19.8554C43.6159 19.9332 43.58 20.4729 43.58 20.4248C43.58 18.5148 44.0554 16.5764 44.6215 14.7605C44.9668 13.6527 45.565 12.6967 45.565 11.5357C45.565 10.993 45.565 9.95851 45.565 11.0682C45.565 11.4571 45.4684 11.5908 45.2341 11.8774C45.0163 12.1438 44.7438 12.2554 44.5725 12.6326C44.3915 13.031 43.9204 13.1914 43.776 13.6576C43.5198 14.4848 42.7623 15.1115 42.0851 15.6536C41.8821 15.8161 41.6214 15.9094 41.4357 16.0911C41.2259 16.2964 41.1049 16.6529 40.8843 16.8883C40.3183 17.4924 39.2247 17.7626 38.5685 18.3209C37.6132 19.1336 36.644 19.8956 35.493 20.4308C34.4492 20.9161 33.5016 21.6102 32.442 22.0491C31.2366 22.5485 29.9465 22.7324 28.6926 23.0681C28.4829 23.1242 26.1147 23.5223 26.6708 22.7804C26.8732 22.5104 27.3927 22.2486 27.7001 22.145C29.0141 21.7021 30.8093 22.0768 32.154 22.1211C35.0426 22.2162 38.0793 21.7986 40.7373 20.6166C41.339 20.349 41.8888 19.9913 42.4772 19.6995C42.6134 19.632 43.0891 19.3413 42.8999 19.7115C42.5505 20.3952 41.8858 21.0444 41.3867 21.6056C40.0452 23.1139 38.575 24.389 36.9879 25.6335C36.6245 25.9185 36.2755 26.3136 35.8667 26.5386C35.8567 26.5441 35.5796 26.6303 35.6645 26.6885C36.0649 26.9627 37.9414 24.8253 38.1886 24.5906C38.9266 23.89 39.7269 23.1688 40.8353 23.5237C41.0807 23.6023 41.2646 23.9306 41.4112 24.1171C42.2686 25.2076 43.2082 26.2697 44.2539 27.192C45.3088 28.1223 46.203 28.8194 46.9312 30.0331C47.1528 30.4026 48.0857 31.2134 47.2742 31.4477C45.2797 32.0235 43.2249 31.0921 41.9626 29.6195C41.5678 29.1591 41.7385 30.162 41.7543 30.3088C41.8845 31.519 42.2165 32.6894 42.6977 33.8093C43.3872 35.4135 44.2071 37.285 45.2954 38.6764C45.9776 39.5487 46.8974 40.0748 47.3661 41.1219C47.4338 41.273 47.9596 43.124 47.4764 42.9801C46.8848 42.8039 46.4763 42.1528 46.1163 41.7094C45.6474 41.1316 45.1626 40.5668 44.7256 39.9651C43.8919 38.8171 43.6902 37.6012 43.6902 36.2189C43.6902 34.2783 43.8484 32.3811 44.0149 30.4527C44.0723 29.7886 44.1718 29.1485 44.3274 28.4987C44.382 28.2705 44.5777 27.9727 44.6031 27.7494C44.6165 27.6316 43.6948 27.684 43.6535 27.6835C41.9898 27.6613 40.3691 27.3687 38.74 27.0601C35.1897 26.3875 31.5972 25.5231 27.9819 26.0651C26.0938 26.3482 23.8521 27.0857 21.9534 26.4427C21.4487 26.2718 20.8053 26.173 20.2686 26.173C19.9472 26.173 20.2308 26.0163 20.3667 25.9572C21.5865 25.4268 23.367 25.7414 24.6123 25.7414C25.4843 25.7414 26.3962 25.8173 27.2345 25.5316C28.2184 25.1963 29.009 24.5493 29.8076 23.9193C31.0756 22.9188 32.3815 21.901 33.7286 21.0062C34.4041 20.5574 35.1707 20.2137 35.8116 19.7235C36.2963 19.3527 36.8845 19.2096 37.3922 18.8903C37.6957 18.6994 37.9648 18.2882 38.2254 18.0332C38.5825 17.6838 38.9617 17.4656 39.3956 17.218C40.3425 16.6776 41.5919 16.3579 42.3669 15.5996" stroke="#323249" stroke-width="3" stroke-linecap="round"/>
</svg>
